<svg width="61" height="24" viewBox="0 0 61 24" fill="none" xmlns="http://www.w3.org/2000/svg">
<path d="M7.67926 10.5336C7.60205 10.4357 6.81152 9.47266 6.81152 9.47266V15.5755C6.81152 16.0742 7.22149 16.4786 7.73074 16.4786C8.23999 16.4786 8.64996 16.0742 8.64996 15.5755L8.63709 11.5529C8.35397 11.3026 8.08556 11.0233 7.67926 10.5336Z" fill="url(#paint0_linear_406_22420)"/>
<path d="M16.0587 14.13C15.7425 14.13 15.4447 14.0629 15.1763 13.9396C15.156 14.13 15.2351 14.7357 14.2644 15.4358C14.1927 15.4848 10.3063 17.915 9.49183 18.3194C8.44025 18.8454 7.26549 18.684 6.57424 18.3339C6.30583 18.2233 2.89737 16.2247 2.75949 16.1268C2.50578 15.949 2.08846 15.6045 1.95609 15.1601C1.83476 14.7756 1.84027 14.1753 1.84027 14.1753V9.09722C1.84027 8.31193 2.07559 6.90275 3.52612 6.27524C5.08511 5.70758 5.93262 6.59807 6.74337 7.57379C6.80588 7.64996 8.38693 9.71022 9.0837 10.3214C9.98269 11.1121 10.8909 11.5166 11.9847 11.5166C14.9281 11.5166 16.0477 9.22055 16.0477 7.52664C16.0458 5.32854 14.2221 3.54395 11.9829 3.54395C10.5931 3.54395 9.31534 4.23856 8.57629 5.37207C8.71234 5.52622 9.0598 5.94879 9.11311 6.01046C9.12782 6.02497 9.71244 6.77036 9.7437 6.81389C9.84481 6.69237 10.685 5.37388 11.9811 5.37388C13.3084 5.37388 14.1706 6.39313 14.1706 7.52664C14.1706 8.71092 13.1944 9.66851 12.0178 9.66851C11.3211 9.66851 10.8707 9.42367 10.3173 8.93581C9.76392 8.44795 8.37774 6.63434 8.37774 6.63434C8.2564 6.47474 7.29858 5.33217 6.61284 4.88239C5.75613 4.31292 4.55196 3.97196 2.94701 4.50153C1.34206 5.03111 0 6.74134 0 9.09722L0.00735373 14.1753C0.00735373 14.3694 -0.00735373 15.0023 0.15259 15.599C0.413648 16.582 0.889802 17.137 1.87704 17.7427C2.34768 18.0039 5.05937 19.6053 5.47853 19.8265C6.27457 20.2437 7.0651 20.4541 8.12588 20.4559C8.94398 20.4577 9.74002 20.26 10.4147 19.9136C11.5012 19.3677 15.031 17.137 15.2535 16.9991C16.2885 16.31 17.1324 15.2236 17.046 13.8906C16.7518 14.0411 16.4154 14.13 16.0587 14.13Z" fill="url(#paint1_linear_406_22420)"/>
<path d="M16.0626 13.1507C16.6582 13.1507 17.1417 12.6774 17.1417 12.0898C17.1417 11.5058 16.6582 11.0288 16.0626 11.0288C15.4669 11.0288 14.9834 11.5022 14.9834 12.0898C14.9834 12.6774 15.4669 13.1507 16.0626 13.1507Z" fill="url(#paint2_linear_406_22420)"/>
<path d="M23.4493 19.8117C22.8757 19.8117 22.437 19.3456 22.437 18.813V11.4225C22.437 10.0243 23.4155 7.82715 26.3511 7.82715C26.8573 7.82715 29.9953 7.82715 29.9953 11.8886C29.9953 15.8168 27.7008 16.0499 26.756 16.0499C25.5076 16.0499 24.6977 15.2842 24.4616 14.8514V18.813C24.4616 19.3456 24.0229 19.8117 23.4493 19.8117ZM27.9033 11.9552C27.9033 11.1895 27.7683 10.5902 27.4646 10.1575C27.1609 9.7247 26.7223 9.52496 26.1824 9.52496C25.6425 9.52496 25.2039 9.7247 24.9002 10.1575C24.6303 10.5237 24.4953 11.1229 24.4953 11.9552C24.4953 12.7208 24.6303 13.2868 24.9339 13.653C25.2376 14.0857 25.6763 14.2855 26.2162 14.2855C26.7223 14.2855 27.1609 14.0857 27.4646 13.653C27.7683 13.2535 27.9033 12.6875 27.9033 11.9552Z" fill="#1C1C1C"/>
<path d="M41.7375 15.9167C41.1302 15.9167 40.624 15.4506 40.624 14.8847V9.05886C40.624 8.49292 41.1302 8.02686 41.7375 8.02686C42.3449 8.02686 42.851 8.49292 42.851 9.05886V14.8847C42.851 15.4506 42.3449 15.9167 41.7375 15.9167Z" fill="#1C1C1C"/>
<path d="M41.7503 4.4104C41.1143 4.4104 40.5898 4.93705 40.5898 5.57575C40.5898 6.21444 41.1143 6.74109 41.7503 6.74109C42.3863 6.74109 42.9107 6.21444 42.9107 5.57575C42.9107 4.93705 42.3975 4.4104 41.7503 4.4104Z" fill="#1C1C1C"/>
<path d="M51.19 4.16528C50.6164 4.16528 50.1777 4.63135 50.1777 5.16399V9.05897C49.9415 8.69278 49.6041 8.35988 49.1992 8.12684C48.828 7.9271 48.3894 7.82722 47.8833 7.82722C46.9385 7.82722 46.1624 8.22671 45.555 8.99239C44.9814 9.75806 44.6777 10.7568 44.6777 11.9885C44.6777 13.2536 44.9814 14.2523 45.555 14.9847C45.8587 15.3508 46.2636 15.6505 46.7698 15.8169C47.2759 15.9834 47.782 16.0832 48.3219 16.0832C49.3004 16.0832 50.1777 15.8502 51.0213 15.3508C51.8311 14.8515 52.2698 13.8861 52.2698 12.4879V5.16399C52.236 4.59806 51.7636 4.16528 51.19 4.16528ZM49.7728 13.7196C49.4691 14.1524 49.0642 14.3521 48.4906 14.3521C47.917 14.3521 47.4784 14.1524 47.2084 13.7196C46.9047 13.2868 46.7698 12.6876 46.7698 11.9219C46.7698 11.2228 46.9047 10.6569 47.2084 10.2574C47.5121 9.82465 47.917 9.62491 48.4569 9.62491C48.9968 9.62491 49.4354 9.82465 49.7391 10.2241C50.0428 10.6569 50.1777 11.2228 50.1777 11.9219C50.1777 12.6876 50.0428 13.3201 49.7728 13.7196Z" fill="#1C1C1C"/>
<path d="M37.767 15.9432C38.3406 15.9432 38.7793 15.4771 38.7793 14.9445V11.3158C38.7793 9.91763 37.8008 7.72046 34.8652 7.72046C34.359 7.72046 31.221 7.72046 31.221 11.7819C31.221 15.7101 33.5155 15.9432 34.4603 15.9432C35.7087 15.9432 36.5186 15.1775 36.7548 14.7447V14.9445C36.7548 15.4771 37.1934 15.9432 37.767 15.9432ZM33.313 11.8485C33.313 11.0828 33.448 10.4836 33.7517 10.0508C34.0554 9.61801 34.494 9.41827 35.0339 9.41827C35.5738 9.41827 36.0124 9.61801 36.3161 10.0508C36.586 10.417 36.721 11.0162 36.721 11.8485C36.721 12.6142 36.586 13.1801 36.2824 13.5463C35.9787 13.979 35.54 14.1788 35.0002 14.1788C34.494 14.1788 34.0554 13.979 33.7517 13.5463C33.448 13.1468 33.313 12.5809 33.313 11.8485Z" fill="#1C1C1C"/>
<path d="M54.7329 19.2125C54.7329 19.5121 55.0028 19.7452 55.2728 19.7784C55.8801 19.845 56.8587 19.845 57.3985 19.4123C57.7697 19.1126 58.0734 18.6799 58.3096 18.0141L60.9415 9.32527C61.1777 8.65946 60.6716 7.99365 59.963 7.99365C59.4906 7.99365 59.0857 8.29327 58.9844 8.72604L57.5673 13.5864L56.1501 8.75934C56.0151 8.29327 55.6102 7.99365 55.1041 7.99365C54.3617 7.99365 53.8556 8.72604 54.0918 9.39185L56.3863 16.8822C56.5212 17.315 56.4875 17.6146 56.2513 17.781C56.0151 17.9808 55.7114 18.0806 55.3065 18.0806C55.0028 18.0806 54.7329 18.347 54.7329 18.6466V19.2125Z" fill="#1C1C1C"/>
<defs>
<linearGradient id="paint0_linear_406_22420" x1="1.40789" y1="18.4574" x2="15.7497" y2="5.0887" gradientUnits="userSpaceOnUse">
<stop stop-color="#A6009C"/>
<stop offset="1" stop-color="#FF009C"/>
</linearGradient>
<linearGradient id="paint1_linear_406_22420" x1="1.48002" y1="23.2626" x2="11.1799" y2="6.23192" gradientUnits="userSpaceOnUse">
<stop offset="0.00901231" stop-color="#A6009C"/>
<stop offset="1" stop-color="#FF009C"/>
</linearGradient>
<linearGradient id="paint2_linear_406_22420" x1="4.71069" y1="22.3867" x2="19.6005" y2="8.50729" gradientUnits="userSpaceOnUse">
<stop stop-color="#A6009C"/>
<stop offset="1" stop-color="#FF009C"/>
</linearGradient>
</defs>
</svg>
